<?xml version="1.0" encoding="UTF-8" standalone="no"?>
<svg
   xmlns:dc="http://purl.org/dc/elements/1.1/"
   xmlns:cc="http://creativecommons.org/ns#"
   xmlns:rdf="http://www.w3.org/1999/02/22-rdf-syntax-ns#"
   xmlns:svg="http://www.w3.org/2000/svg"
   xmlns="http://www.w3.org/2000/svg"
   xmlns:sodipodi="http://sodipodi.sourceforge.net/DTD/sodipodi-0.dtd"
   xmlns:inkscape="http://www.inkscape.org/namespaces/inkscape"
   width="230"
   height="80"
   version="1.1"
   id="svg10"
   sodipodi:docname="dynv6.svg"
   inkscape:version="0.92.1 r15371">
  <metadata
     id="metadata16">
    <rdf:RDF>
      <cc:Work
         rdf:about="">
        <dc:format>image/svg+xml</dc:format>
        <dc:type
           rdf:resource="http://purl.org/dc/dcmitype/StillImage" />
        <dc:title></dc:title>
      </cc:Work>
    </rdf:RDF>
  </metadata>
  <defs
     id="defs14" />
  <sodipodi:namedview
     pagecolor="#ffffff"
     bordercolor="#666666"
     borderopacity="1"
     objecttolerance="10"
     gridtolerance="10"
     guidetolerance="10"
     inkscape:pageopacity="0"
     inkscape:pageshadow="2"
     inkscape:window-width="1680"
     inkscape:window-height="1013"
     id="namedview12"
     showgrid="false"
     inkscape:pagecheckerboard="false"
     inkscape:zoom="2.643"
     inkscape:cx="73.21"
     inkscape:cy="22"
     inkscape:window-x="0"
     inkscape:window-y="0"
     inkscape:window-maximized="1"
     inkscape:current-layer="svg10" />
  <path
     style="fill:#cf0000"
     inkscape:connector-curvature="0"
     id="path2"
     d="m 173.1,43.31 c 0,3.74 -1.2,6.96 -3.7,9.66 a 14.02,14.02 0 0 1 -10.8,4.69 c -5.1,0 -8.9,-2.12 -11.4,-6.36 -1.7,-2.92 -2.6,-6.37 -2.6,-10.33 0,-5.78 2,-11.47 6.1,-17.07 a 39.73,39.73 0 0 1 17.7,-13.87 0.56,0.56 0 0 1 0.2,-0 c 0.3,0 0.5,0.3 0.8,0.88 0.2,0.39 0.2,0.68 0.2,0.89 0,0.22 0,0.37 -0.2,0.44 -5.4,3 -9.6,7.38 -12.6,13.15 a 35.3,35.3 0 0 0 -3.1,8.43 9.94,9.94 0 0 1 7.4,-3.77 c 3.7,0 6.7,1.49 9,4.45 a 13.91,13.91 0 0 1 3,8.84 m -7.4,1.97 c 0,-2.28 -0.7,-4.53 -2,-6.73 -1.4,-2.2 -3.2,-3.3 -5.3,-3.3 -2,0 -3.9,0.89 -5.4,2.66 -0.2,0.9 -0.3,1.95 -0.3,3.13 0,8.72 2.2,13.08 6.7,13.08 2.4,0 4.2,-1.28 5.3,-3.84 0.6,-1.47 1,-3.14 1,-5" />
  <path
     style="fill:#333333;fill-opacity:1"
     inkscape:connector-curvature="0"
     id="path4"
     d="M 68.92,40.14 V 29.68 h 5.14 V 57.03 H 68.92 V 54.1 a 6.19,6.19 0 0 1 -2.14,2.57 c -0.87,0.57 -1.9,0.86 -3.08,0.86 A 6,6 0 0 1 58.46,54.82 C 57.22,53.03 56.6,50.48 56.6,47.2 c 0,-3.33 0.63,-5.88 1.88,-7.66 a 6.23,6.23 0 0 1 5.4,-2.67 c 1.05,0 2,0.27 2.83,0.82 a 6.96,6.96 0 0 1 2.21,2.45 m -7.17,7.1 c 0,1.9 0.32,3.38 0.95,4.46 0.63,1.08 1.5,1.62 2.62,1.62 1.11,0 2,-0.54 2.64,-1.62 0.64,-1.08 0.96,-2.56 0.96,-4.46 0,-1.9 -0.32,-3.39 -0.96,-4.47 -0.65,-1.08 -1.53,-1.62 -2.64,-1.62 -1.11,0 -1.99,0.54 -2.62,1.62 -0.63,1.08 -0.95,2.57 -0.95,4.47 m 27.42,11.91 c -0.69,1.86 -1.52,3.2 -2.5,4.05 a 5.1,5.1 0 0 1 -3.5,1.28 H 78.9 v -3.92 h 2.09 c 1.05,0 1.83,-0.18 2.32,-0.54 0.5,-0.36 0.99,-1.18 1.5,-2.48 L 85.19,56.48 77.7,37.34 h 5.42 l 4.5,12.78 4.3,-12.78 h 5.42 L 89.16,59.15 M 117.2,44.25 V 57.03 H 112 v -12 c 0,-1.42 -0.2,-2.44 -0.6,-3.05 -0.4,-0.62 -1,-0.93 -1.9,-0.93 a 2.5,2.5 0 0 0 -2.2,1.25 c -0.6,0.83 -0.8,1.98 -0.8,3.46 v 11.27 h -5.1 V 37.34 h 5.1 v 2.95 a 4.79,4.79 0 0 1 1.8,-2.53 c 0.9,-0.6 2,-0.9 3.2,-0.9 1.9,0 3.3,0.63 4.2,1.87 1,1.23 1.5,3.07 1.5,5.52" />
  <path
     style="fill:#008fd4"
     inkscape:connector-curvature="0"
     id="path6"
     d="M 140.3,37.34 134,57.03 h -6.3 l -6.3,-19.69 h 5.2 l 4.2,15.36 4.2,-15.36 h 5.3" />
</svg>
