<svg
  xmlns="http://www.w3.org/2000/svg"
  width="230"
  height="80"
>
  <g transform="translate(56.6 10)">
    <path fill="#cf0000" d="M116.5 33.31c0 3.74-1.22 6.96-3.67 9.66a14.02 14.02 0 01-10.88 4.69c-5.1 0-8.89-2.12-11.38-6.36-1.7-2.92-2.55-6.37-2.55-10.33 0-5.78 2.01-11.47 6.05-17.07A39.73 39.73 0 01111.77.03a.56.56 0 01.18-.03c.32 0 .6.3.85.88.16.39.24.68.24.89 0 .22-.07.37-.2.44-5.45 3-9.66 7.38-12.65 13.15a35.3 35.3 0 00-3.1 8.43 9.94 9.94 0 017.45-3.77c3.67 0 6.67 1.49 9 4.45a13.91 13.91 0 012.96 8.84m-7.44 1.97c0-2.28-.67-4.53-2-6.73-1.37-2.2-3.11-3.3-5.24-3.3-2.06 0-3.88.89-5.44 2.66-.18.9-.27 1.95-.27 3.13 0 8.72 2.23 13.08 6.7 13.08 2.4 0 4.15-1.28 5.26-3.84.66-1.47.99-3.14.99-5" />
    <path fill="#cccccc" d="M12.32 30.14V19.68h5.14v27.35h-5.14V44.1a6.19 6.19 0 01-2.14 2.57c-.87.57-1.9.86-3.08.86a6 6 0 01-5.24-2.71C.62 43.03 0 40.48 0 37.2c0-3.33.63-5.88 1.88-7.66a6.23 6.23 0 015.4-2.67c1.05 0 2 .27 2.83.82a6.96 6.96 0 012.21 2.45m-7.17 7.1c0 1.9.32 3.38.95 4.46.63 1.08 1.5 1.62 2.62 1.62 1.11 0 2-.54 2.64-1.62.64-1.08.96-2.56.96-4.46s-.32-3.39-.96-4.47c-.65-1.08-1.53-1.62-2.64-1.62s-1.99.54-2.62 1.62c-.63 1.08-.95 2.57-.95 4.47M32.57 49.15c-.69 1.86-1.52 3.2-2.5 4.05a5.1 5.1 0 01-3.5 1.28H22.3v-3.92h2.09c1.05 0 1.83-.18 2.32-.54.5-.36.99-1.18 1.5-2.48l.38-1.06-7.49-19.14h5.42l4.5 12.78 4.3-12.78h5.42l-8.18 21.81M60.56 34.25v12.78h-5.12v-12c0-1.42-.2-2.44-.61-3.05-.4-.62-1.06-.93-1.97-.93a2.5 2.5 0 00-2.2 1.25c-.53.83-.8 1.98-.8 3.46v11.27h-5.1V27.34h5.1v2.95a4.79 4.79 0 011.87-2.53c.88-.6 1.94-.9 3.18-.9 1.87 0 3.27.63 4.22 1.87.95 1.23 1.43 3.07 1.43 5.52" />
    <path fill="#008fd4" d="M83.65 27.34L77.4 47.03h-6.35L64.8 27.34h5.22l4.2 15.36 4.22-15.36h5.22" />
  </g>
</svg>
